<svg xmlns="http://www.w3.org/2000/svg" viewBox="0 0 64 64"><rect width="64" height="64" rx="14" fill="#745233"/><g stroke="none"><rect x="8" y="8" width="11" height="11" rx="2" fill="#eee4da"/><rect x="21" y="8" width="11" height="11" rx="2" fill="#f2b179"/><rect x="34" y="8" width="11" height="11" rx="2" fill="#f59563"/><rect x="47" y="8" width="9" height="11" rx="2" fill="#f67c5f"/><rect x="8" y="21" width="11" height="11" rx="2" fill="#f65e3b"/><rect x="21" y="21" width="11" height="11" rx="2" fill="#edcf72"/><rect x="34" y="21" width="11" height="11" rx="2" fill="#edc22e"/><rect x="47" y="21" width="9" height="11" rx="2" fill="#ede0c8"/><rect x="8" y="34" width="11" height="11" rx="2" fill="#f59563"/><rect x="21" y="34" width="11" height="11" rx="2" fill="#eee4da"/><rect x="34" y="34" width="11" height="11" rx="2" fill="#f2b179"/><rect x="47" y="34" width="9" height="11" rx="2" fill="#edcc61"/><rect x="8" y="47" width="11" height="9" rx="2" fill="#ede0c8"/><rect x="21" y="47" width="11" height="9" rx="2" fill="#f67c5f"/><rect x="34" y="47" width="11" height="9" rx="2" fill="#eee4da"/><rect x="47" y="47" width="9" height="9" rx="2" fill="#f65e3b"/></g></svg>
